<?xml version="1.0" encoding="UTF-8"?>
<svg xmlns="http://www.w3.org/2000/svg" viewBox="0 0 24 28" role="img" aria-label="Bitwarden">
  <title>Bitwarden</title>
  <path class="shield-fill" fill="#175DDC" d="M12 0C5.373 0 0 1.79 0 4v11c0 7.18 5.373 12.18 12 13 6.627-.82 12-5.82 12-13V4c0-2.21-5.373-4-12-4z"/>
  <path class="shield-glyph" fill="#FFFFFF" d="M12 4.5c-3.59 0-7 1-7 2.4v8.1c0 4.55 3.41 7.7 7 8.5 3.59-.8 7-3.95 7-8.5V6.9c0-1.4-3.41-2.4-7-2.4zm5 10.5c0 3.5-2.55 5.95-5 6.6V6.5c2.45 0 5 .68 5 1.4V15z"/>
</svg>
